<svg width="30" height="30" viewBox="0 0 30 30" fill="none" xmlns="http://www.w3.org/2000/svg">
<g clip-path="url(#clip0_308_423)">
<rect x="0.57843" y="12.3188" width="17.0737" height="17.0738" fill="#7595FD"/>
<path d="M8.33478 23.0265L8.63967 25.7339L10.6153 23.8558L13.9935 14.5872C13.1642 14.3799 12.4325 13.9652 11.8349 13.392L8.33478 23.0265ZM18.5912 13.392C17.9936 13.9652 17.2497 14.3799 16.4326 14.5872L19.8108 23.8558L21.7865 25.7339L22.1035 23.0265L18.5912 13.392V13.392ZM18.7985 10.6114C19.1644 8.70893 18.0668 7.02595 16.4326 6.44056V5.00149C16.4326 4.33074 15.8838 3.78194 15.2131 3.78194C14.5423 3.78194 13.9935 4.33074 13.9935 5.00149V6.44056C12.5788 6.95278 11.5544 8.29428 11.5544 9.8797C11.5544 12.1237 13.5789 13.9042 15.896 13.4774C17.3351 13.2091 18.5181 12.0505 18.7985 10.6114V10.6114ZM15.2131 11.0993C14.5423 11.0993 13.9935 10.5505 13.9935 9.8797C13.9935 9.20895 14.5423 8.66015 15.2131 8.66015C15.8838 8.66015 16.4326 9.20895 16.4326 9.8797C16.4326 10.5505 15.8838 11.0993 15.2131 11.0993Z" fill="#292E3D"/>
</g>
<defs>
<clipPath id="clip0_308_423">
<rect width="29.2693" height="29.2693" fill="white" transform="translate(0.57843 0.123276)"/>
</clipPath>
</defs>
</svg>
