<svg width="24" height="25" viewBox="0 0 24 25" fill="none" xmlns="http://www.w3.org/2000/svg">
<path d="M20.7297 -0.00431061H8.55738C7.20246 -0.00431061 6.10608 1.09207 6.10608 2.44699V9.32162L0.37174 14.9828C0.199924 15.1527 0.0824638 15.3699 0.0342675 15.6067C-0.0139287 15.8435 0.00931159 16.0892 0.101039 16.3128C0.192766 16.5364 0.348845 16.7277 0.549468 16.8624C0.750091 16.9971 0.986212 17.0692 1.22787 17.0694V23.1672C1.22787 23.4907 1.35636 23.8009 1.58507 24.0296C1.81378 24.2583 2.12397 24.3868 2.44742 24.3868H21.9603C22.2837 24.3868 22.5939 24.2583 22.8226 24.0296C23.0513 23.8009 23.1798 23.4907 23.1798 23.1672V2.44577C23.1798 1.09207 22.0847 -0.00431061 20.7297 -0.00431061ZM10.8892 15.9853V21.9477H3.66697V15.1572L7.30978 11.5607L10.8892 15.223V15.9853V15.9853ZM13.4234 8.53257H10.9843V6.09346H13.4234V8.53257ZM18.3016 18.289H15.8625V15.8499H18.3016V18.289ZM18.3016 13.4108H15.8625V10.9717H18.3016V13.4108ZM18.3016 8.53257H15.8625V6.09346H18.3016V8.53257Z" fill="#292E3D"/>
</svg>
