<svg xmlns="http://www.w3.org/2000/svg" viewBox="0 0 41 40"><g clip-path="url(#a)"><path fill="#7595FD" d="M.5 16.667h23.333V40H.5z"/><path fill="#292E3D" d="M32.152 3.333H15.517a3.348 3.348 0 0 0-3.35 3.35v9.395L4.33 23.815a1.667 1.667 0 0 0 1.17 2.852V35a1.667 1.667 0 0 0 1.667 1.667h26.666A1.667 1.667 0 0 0 35.5 35V6.682a3.346 3.346 0 0 0-3.348-3.349ZM18.703 25.185v8.148h-9.87v-9.28l4.979-4.915 4.891 5.005v1.042ZM22.167 15h-3.334v-3.333h3.334V15Zm6.666 13.333H25.5V25h3.333v3.333Zm0-6.666H25.5v-3.334h3.333v3.334Zm0-6.667H25.5v-3.333h3.333V15Z"/><path fill="#14171F" d="M12.167 25H15.5v3.333h-3.333V25Z"/></g><defs><clipPath id="a"><path d="M.5 0h40v40H.5z"/></clipPath></defs></svg>
