<svg width="30" height="30" viewBox="0 0 30 30" fill="none" xmlns="http://www.w3.org/2000/svg">
<g clip-path="url(#clip0_308_411)">
<rect x="0.221741" y="12.7522" width="17.0737" height="17.0738" fill="#7595FD"/>
<path d="M13.6368 7.87393H17.2955L21.3078 3.8494C21.4212 3.7351 21.556 3.64437 21.7047 3.58245C21.8533 3.52054 22.0127 3.48866 22.1737 3.48866C22.3347 3.48866 22.4941 3.52054 22.6427 3.58245C22.7913 3.64437 22.9262 3.7351 23.0396 3.8494L26.186 7.00805C26.4131 7.23655 26.5406 7.54564 26.5406 7.86783C26.5406 8.19002 26.4131 8.49912 26.186 8.72762L23.3932 11.5326H13.6368V13.9717C13.6368 14.2951 13.5083 14.6053 13.2796 14.8341C13.0509 15.0628 12.7407 15.1913 12.4172 15.1913C12.0938 15.1913 11.7836 15.0628 11.5549 14.8341C11.3262 14.6053 11.1977 14.2951 11.1977 13.9717V10.313C11.1977 9.66615 11.4547 9.04575 11.9121 8.58833C12.3695 8.13091 12.9899 7.87393 13.6368 7.87393ZM6.31947 13.9717V18.8499L3.5267 21.6427C3.29955 21.8712 3.17206 22.1803 3.17206 22.5025C3.17206 22.8247 3.29955 23.1338 3.5267 23.3623L6.67314 26.5209C6.78652 26.6352 6.9214 26.7259 7.07001 26.7879C7.21863 26.8498 7.37803 26.8816 7.53903 26.8816C7.70002 26.8816 7.85942 26.8498 8.00804 26.7879C8.15665 26.7259 8.29154 26.6352 8.40491 26.5209L13.6368 21.289H18.515C18.8385 21.289 19.1487 21.1605 19.3774 20.9318C19.6061 20.7031 19.7346 20.3929 19.7346 20.0695V18.8499H20.9541C21.2776 18.8499 21.5878 18.7214 21.8165 18.4927C22.0452 18.264 22.1737 17.9538 22.1737 17.6304V16.4108H23.3932C23.7167 16.4108 24.0269 16.2823 24.2556 16.0536C24.4843 15.8249 24.6128 15.5147 24.6128 15.1913V13.9717H16.0759V15.1913C16.0759 15.8381 15.8189 16.4585 15.3615 16.916C14.9041 17.3734 14.2837 17.6304 13.6368 17.6304H11.1977C10.5508 17.6304 9.9304 17.3734 9.47298 16.916C9.01556 16.4585 8.75858 15.8381 8.75858 15.1913V11.5326L6.31947 13.9717Z" fill="#292E3D"/>
</g>
<defs>
<clipPath id="clip0_308_411">
<rect width="29.2693" height="29.2693" fill="white" transform="translate(0.22168 0.556599)"/>
</clipPath>
</defs>
</svg>
