<svg xmlns="http://www.w3.org/2000/svg"><path fill="#7595FD" d="M0 16.667h23.333V40H0z"/><path fill="#292E3D" d="M18.333 10h5l5.484-5.5a1.666 1.666 0 0 1 2.366 0l4.3 4.317a1.666 1.666 0 0 1 0 2.35L31.667 15H18.333v3.333a1.667 1.667 0 0 1-3.333 0v-5A3.333 3.333 0 0 1 18.333 10Zm-10 8.333V25l-3.816 3.817a1.667 1.667 0 0 0 0 2.35l4.3 4.316a1.667 1.667 0 0 0 2.366 0l7.15-7.15H25a1.667 1.667 0 0 0 1.667-1.666V25h1.666A1.666 1.666 0 0 0 30 23.333v-1.666h1.667A1.667 1.667 0 0 0 33.333 20v-1.667H21.667V20a3.333 3.333 0 0 1-3.334 3.333H15A3.333 3.333 0 0 1 11.667 20v-5l-3.334 3.333Z"/></svg>
