<svg width="30" height="30" viewBox="0 0 30 30" fill="none" xmlns="http://www.w3.org/2000/svg">
<g clip-path="url(#clip0_308_429)">
<rect x="0.221741" y="12.3188" width="17.0737" height="17.0738" fill="#7595FD"/>
<path d="M25.8323 17.197C25.8323 16.5263 25.2835 15.9775 24.6128 15.9775H22.1737V18.4166H24.6128C25.2835 18.4166 25.8323 17.8678 25.8323 17.197ZM24.6128 20.8557H22.1737V23.2948H24.6128C25.2835 23.2948 25.8323 22.746 25.8323 22.0752C25.8323 21.4045 25.2835 20.8557 24.6128 20.8557ZM14.8563 17.197H12.4172V22.0752H14.8563C14.8563 23.4167 15.9539 24.5143 17.2955 24.5143H20.9541V14.7579H17.2955C15.9539 14.7579 14.8563 15.8555 14.8563 17.197Z" fill="white"/>
<path d="M6.31948 15.9775C6.31948 14.636 7.41708 13.5384 8.75859 13.5384H10.5879C12.9417 13.5384 14.8564 11.6237 14.8564 9.26995C14.8564 6.91621 12.9417 5.00151 10.5879 5.00151H6.31948C5.64872 5.00151 5.09992 5.55031 5.09992 6.22106C5.09992 6.89182 5.64872 7.44062 6.31948 7.44062H10.5879C11.6001 7.44062 12.4172 8.25772 12.4172 9.26995C12.4172 10.2822 11.6001 11.0993 10.5879 11.0993H8.75859C6.06337 11.0993 3.88037 13.2823 3.88037 15.9775C3.88037 18.6727 6.06337 20.8557 8.75859 20.8557H11.1977V18.4166H8.75859C7.41708 18.4166 6.31948 17.319 6.31948 15.9775Z" fill="white"/>
</g>
<defs>
<clipPath id="clip0_308_429">
<rect width="29.2693" height="29.2693" fill="white" transform="translate(0.22168 0.123276)"/>
</clipPath>
</defs>
</svg>
