<svg width="30" height="29" viewBox="0 0 30 29" fill="none" xmlns="http://www.w3.org/2000/svg">
<path d="M15.0245 0.361572C7.26519 0.361572 0.97522 6.65154 0.97522 14.4108C0.97522 22.1701 7.26519 28.4601 15.0245 28.4601C22.7838 28.4601 29.0737 22.1701 29.0737 14.4108C29.0737 6.65154 22.7838 0.361572 15.0245 0.361572ZM11.5853 20.234H8.74036V11.0785H11.5853V20.234ZM10.1453 9.95458C9.24672 9.95458 8.66573 9.31797 8.66573 8.53063C8.66573 7.72719 9.26428 7.10961 10.1819 7.10961C11.0995 7.10961 11.6614 7.72719 11.679 8.53063C11.679 9.31797 11.0995 9.95458 10.1453 9.95458ZM21.9759 20.234H19.131V15.1601C19.131 13.9791 18.7183 13.1771 17.6894 13.1771C16.9036 13.1771 16.4367 13.7201 16.2304 14.2425C16.1543 14.4284 16.1352 14.6918 16.1352 14.9538V20.2325H13.2888V13.9981C13.2888 12.8552 13.2522 11.8995 13.2142 11.0771H15.686L15.8162 12.3488H15.8733C16.2479 11.7517 17.1655 10.8707 18.7007 10.8707C20.5725 10.8707 21.9759 12.1249 21.9759 14.8206V20.234V20.234Z" fill="#3D445C"/>
</svg>
