<svg xmlns="http://www.w3.org/2000/svg"><g><path fill="#7595FD" d="M.5 16.667h23.333V40H.5z"/><path fill="#fff" d="M33 5a4.17 4.17 0 0 0-4.167 4.167c0 .595.13 1.16.357 1.675l-3.258 3.665a6.628 6.628 0 0 0-3.765-1.174c-1.234 0-2.374.36-3.365.944l-3.79-3.789-.039.039a4.943 4.943 0 0 0 .527-2.194 5 5 0 1 0-5 5c.792 0 1.528-.2 2.193-.526l-.038.038 3.79 3.788A6.593 6.593 0 0 0 15.5 20c0 1.662.633 3.165 1.642 4.335l-4.295 4.293a4.12 4.12 0 0 0-1.514-.295A4.171 4.171 0 0 0 7.167 32.5a4.171 4.171 0 0 0 4.166 4.167A4.171 4.171 0 0 0 15.5 32.5c0-.535-.11-1.043-.295-1.515l4.73-4.73c.702.25 1.445.412 2.232.412A6.673 6.673 0 0 0 28.833 20c0-1.06-.271-2.048-.713-2.94l3.528-3.972c.427.147.877.245 1.352.245a4.17 4.17 0 0 0 4.167-4.166A4.17 4.17 0 0 0 33 5ZM22.167 23.333A3.337 3.337 0 0 1 18.833 20a3.337 3.337 0 0 1 3.334-3.333A3.337 3.337 0 0 1 25.5 20a3.337 3.337 0 0 1-3.333 3.333Z"/></g><defs><clipPath id="a"><path fill="#fff" d="M.5 0h40v40H.5z"/></clipPath></defs></svg>
