<svg width="30" height="30" viewBox="0 0 30 30" fill="none" xmlns="http://www.w3.org/2000/svg">
<g clip-path="url(#clip0_308_405)">
<rect x="0.57843" y="12.7522" width="17.0737" height="17.0738" fill="#7595FD"/>
<path d="M24.3598 4.21524C23.5513 4.21589 22.7762 4.53732 22.2046 5.10896C21.6329 5.68059 21.3115 6.45571 21.3109 7.26413C21.3109 7.69951 21.406 8.11294 21.5719 8.48978L19.1876 11.1716C18.3777 10.6125 17.4168 10.3131 16.4327 10.313C15.5302 10.313 14.696 10.5764 13.9704 11.0033L11.1971 8.23123L11.1691 8.25928C11.4081 7.7739 11.5544 7.23364 11.5544 6.65435C11.5544 5.93074 11.3399 5.22337 10.9378 4.62171C10.5358 4.02005 9.96443 3.55111 9.29589 3.27419C8.62736 2.99727 7.89173 2.92482 7.18202 3.06599C6.4723 3.20716 5.82039 3.55562 5.30872 4.06729C4.79705 4.57896 4.44859 5.23087 4.30742 5.94058C4.16625 6.65029 4.23871 7.38593 4.51562 8.05446C4.79254 8.72299 5.26148 9.2944 5.86314 9.69642C6.4648 10.0984 7.17217 10.313 7.89578 10.313C8.47507 10.313 9.01412 10.1667 9.50072 9.92763L9.47267 9.95568L12.2459 12.7277C11.7979 13.4717 11.559 14.3228 11.5544 15.1912C11.5544 16.4071 12.0179 17.5072 12.7557 18.3633L9.61292 21.5049C9.26067 21.3639 8.88497 21.2906 8.50556 21.289C6.82502 21.289 5.45668 22.6561 5.45668 24.3379C5.45668 26.0196 6.82502 27.3868 8.50556 27.3868C10.1861 27.3868 11.5544 26.0196 11.5544 24.3379C11.5544 23.9464 11.474 23.5744 11.3386 23.2293L14.7997 19.7682C15.3131 19.9511 15.857 20.0694 16.4327 20.0694C19.123 20.0694 21.3109 17.8816 21.3109 15.1912C21.3109 14.4156 21.1121 13.6924 20.7889 13.0399L23.3707 10.1337C23.6829 10.2411 24.0122 10.313 24.3598 10.313C26.0415 10.313 27.4086 8.94589 27.4086 7.26413C27.4086 5.58236 26.0415 4.21524 24.3598 4.21524ZM16.4327 17.6303C15.0875 17.6303 13.9936 16.5364 13.9936 15.1912C13.9936 13.8461 15.0875 12.7521 16.4327 12.7521C17.7778 12.7521 18.8718 13.8461 18.8718 15.1912C18.8718 16.5364 17.7778 17.6303 16.4327 17.6303Z" fill="white"/>
</g>
<defs>
<clipPath id="clip0_308_405">
<rect width="29.2693" height="29.2693" fill="white" transform="translate(0.57843 0.556599)"/>
</clipPath>
</defs>
</svg>
