<svg width="30" height="30" viewBox="0 0 30 30" fill="none" xmlns="http://www.w3.org/2000/svg">
<g clip-path="url(#clip0_308_417)">
<rect x="0.569214" y="12.3188" width="17.0737" height="17.0738" fill="#7595FD"/>
<path d="M22.5212 19.6362H20.0821V18.4166H10.3256V19.6362H7.88652V18.4166H3.0083V24.5144H27.3994V18.4166H22.5212V19.6362ZM24.9603 9.87972H21.3016V7.44062C21.3016 6.09911 20.204 5.00151 18.8625 5.00151H11.5452C10.2037 5.00151 9.10607 6.09911 9.10607 7.44062V9.87972H5.44741C4.1059 9.87972 3.0083 10.9773 3.0083 12.3188V17.197H7.88652V14.7579H10.3256V17.197H20.0821V14.7579H22.5212V17.197H27.3994V12.3188C27.3994 10.9773 26.3018 9.87972 24.9603 9.87972ZM18.8625 9.87972H11.5452V7.44062H18.8625V9.87972Z" fill="white"/>
</g>
<defs>
<clipPath id="clip0_308_417">
<rect width="29.2693" height="29.2693" fill="white" transform="translate(0.569214 0.123276)"/>
</clipPath>
</defs>
</svg>
