<svg width="30" height="30" viewBox="0 0 30 30" fill="none" xmlns="http://www.w3.org/2000/svg">
<path d="M26.2994 9.85191C26.9463 9.85191 27.5667 10.1089 28.0241 10.5663C28.4815 11.0237 28.7385 11.6441 28.7385 12.291V17.1692C28.7385 17.8161 28.4815 18.4365 28.0241 18.8939C27.5667 19.3514 26.9463 19.6083 26.2994 19.6083H25.0042C24.7069 21.9661 23.5594 24.1343 21.777 25.7061C19.9946 27.2779 17.6998 28.1452 15.3234 28.1452V25.7061C17.2641 25.7061 19.1253 24.9352 20.4975 23.5629C21.8698 22.1907 22.6407 20.3295 22.6407 18.3888V11.0715C22.6407 9.13079 21.8698 7.2696 20.4975 5.89733C19.1253 4.52507 17.2641 3.75414 15.3234 3.75414C13.3827 3.75414 11.5216 4.52507 10.1493 5.89733C8.77702 7.2696 8.00609 9.13079 8.00609 11.0715V19.6083H4.34743C3.70054 19.6083 3.08014 19.3514 2.62272 18.8939C2.1653 18.4365 1.90833 17.8161 1.90833 17.1692V12.291C1.90833 11.6441 2.1653 11.0237 2.62272 10.5663C3.08014 10.1089 3.70054 9.85191 4.34743 9.85191H5.6426C5.94021 7.49438 7.08787 5.32648 8.87024 3.75496C10.6526 2.18345 12.9472 1.31635 15.3234 1.31635C17.6997 1.31635 19.9942 2.18345 21.7766 3.75496C23.559 5.32648 24.7066 7.49438 25.0042 9.85191H26.2994ZM10.1525 19.3461L11.4452 17.2778C12.6076 18.0059 13.9519 18.391 15.3234 18.3888C16.695 18.391 18.0393 18.0059 19.2016 17.2778L20.4943 19.3461C18.9446 20.3171 17.1522 20.8307 15.3234 20.8279C13.4946 20.8307 11.7022 20.3171 10.1525 19.3461Z" fill="#F9995D"/>
</svg>
