<svg width="29" height="29" viewBox="0 0 29 29" fill="none" xmlns="http://www.w3.org/2000/svg">
<path d="M14.9284 0.361572C7.16912 0.361572 0.87915 6.65154 0.87915 14.4108C0.87915 22.1701 7.16912 28.4601 14.9284 28.4601C22.6877 28.4601 28.9777 22.1701 28.9777 14.4108C28.9777 6.65154 22.6877 0.361572 14.9284 0.361572ZM20.6432 11.8703C20.6491 11.9903 20.6506 12.1103 20.6506 12.2273C20.6506 15.886 17.8685 20.1022 12.7786 20.1022C11.2746 20.1047 9.80184 19.6728 8.53746 18.8583C8.75259 18.8846 8.97357 18.8949 9.19748 18.8949C10.4941 18.8949 11.6868 18.4544 12.6337 17.7109C12.0567 17.6996 11.4976 17.5085 11.0343 17.1644C10.571 16.8202 10.2267 16.3401 10.0492 15.7909C10.4636 15.8697 10.8905 15.8532 11.2976 15.7426C10.6713 15.6159 10.108 15.2766 9.70341 14.7821C9.29878 14.2875 9.07763 13.6683 9.07748 13.0293V12.9957C9.45066 13.202 9.87799 13.3279 10.3317 13.3425C9.74452 12.9517 9.32888 12.3513 9.16974 11.6641C9.0106 10.9769 9.11999 10.255 9.47554 9.64579C10.1706 10.5005 11.0374 11.1996 12.0199 11.698C13.0023 12.1964 14.0785 12.483 15.1787 12.5391C15.0388 11.9453 15.099 11.3221 15.3499 10.7661C15.6008 10.2101 16.0284 9.75261 16.5661 9.46471C17.1039 9.17681 17.7217 9.07463 18.3235 9.17407C18.9253 9.27352 19.4774 9.569 19.8939 10.0146C20.5132 9.89206 21.1071 9.6649 21.6501 9.34285C21.4437 9.98405 21.0116 10.5285 20.434 10.8751C20.9825 10.809 21.5182 10.6615 22.0233 10.4375C21.6523 10.9935 21.1849 11.4787 20.6432 11.8703V11.8703Z" fill="#3D445C"/>
</svg>
